<?xml version="1.0" standalone="no"?>
<!DOCTYPE svg PUBLIC "-//W3C//DTD SVG 20010904//EN"
 "http://www.w3.org/TR/2001/REC-SVG-20010904/DTD/svg10.dtd">
<svg version="1.0" xmlns="http://www.w3.org/2000/svg"
 width="113.000000pt" height="153.000000pt" viewBox="0 0 113.000000 153.000000"
 preserveAspectRatio="xMidYMid meet">

<g transform="translate(0.000000,153.000000) scale(0.100000,-0.100000)"
fill="#ffffff" stroke="none">
<path d="M428 1472 c-13 -32 -21 -40 -50 -45 -84 -13 -186 -82 -207 -140 -15
-40 -14 -103 4 -136 8 -16 11 -31 8 -35 -4 -3 -2 -6 4 -6 6 0 10 -7 9 -16 0
-9 5 -19 13 -22 10 -3 12 0 7 13 -9 23 22 51 51 47 14 -2 27 4 35 17 9 16 15
18 26 8 11 -9 17 -8 26 4 13 18 36 14 36 -7 0 -8 5 -14 10 -14 6 0 10 6 10 13
0 8 3 7 9 -3 6 -8 7 -18 5 -22 -3 -4 0 -8 5 -8 22 0 10 -18 -16 -25 -15 -3
-37 -17 -48 -29 -12 -13 -39 -26 -60 -30 -33 -7 -41 -4 -57 16 -19 25 -24 18
-8 -13 12 -21 68 -26 101 -9 18 10 19 7 18 -37 0 -26 -4 -56 -8 -66 -6 -17 -8
-16 -21 7 -15 29 -22 31 -51 16 -17 -10 -19 -7 -19 19 0 34 -42 86 -63 78 -7
-3 -19 -23 -27 -46 -12 -36 -11 -43 3 -59 12 -13 13 -21 6 -32 -9 -13 -10 -13
-6 1 6 17 -37 48 -49 36 -3 -3 -7 -34 -8 -68 -1 -66 8 -78 42 -60 26 14 36 -9
20 -44 -14 -32 -9 -36 75 -65 56 -20 67 -27 67 -46 0 -15 -8 -25 -22 -30 -13
-3 -36 -16 -52 -27 -22 -16 -30 -17 -36 -7 -5 7 -6 20 -3 29 3 10 2 12 -4 5
-4 -6 -18 -14 -30 -18 -26 -8 -31 -43 -9 -52 10 -4 8 -11 -11 -30 -21 -21 -24
-31 -18 -62 9 -49 10 -50 55 -63 22 -7 46 -22 54 -34 12 -18 178 -229 192
-244 3 -3 11 5 20 17 8 12 19 22 25 22 14 0 11 -52 -6 -84 -18 -34 -16 -38 27
-41 37 -3 49 9 78 73 32 70 21 113 -24 96 -8 -3 -17 -1 -21 5 -4 7 0 8 11 4
13 -5 15 -2 10 14 -4 12 0 36 7 54 23 55 34 94 30 106 -3 7 -22 23 -44 35 -21
12 -39 25 -39 30 0 5 24 19 53 32 l52 23 40 -21 c50 -26 127 -27 175 -1 70 36
246 18 263 -27 2 -7 7 -11 10 -8 9 9 -36 92 -69 125 -17 18 -56 41 -85 51 -63
23 -116 79 -174 188 -64 119 -173 231 -206 210 -8 -4 -9 -3 -5 4 4 6 -5 19
-19 28 -31 20 -31 33 -4 69 16 19 23 45 26 93 4 57 1 74 -21 117 -23 45 -24
51 -11 72 20 30 19 36 -5 28 -17 -5 -20 -2 -20 26 0 31 0 32 -20 14 -22 -19
-22 -19 -37 8 -8 16 -12 13 -25 -21z m42 -426 c0 -2 -7 -7 -16 -10 -8 -3 -12
-2 -9 4 6 10 25 14 25 6z m-226 -69 c-3 -8 -1 -24 5 -35 7 -13 7 -22 0 -29 -7
-7 -21 -1 -45 21 l-34 31 16 36 17 36 23 -22 c15 -14 22 -29 18 -38z m311 33
c3 -5 -3 -10 -15 -10 -12 0 -18 5 -15 10 3 6 10 10 15 10 5 0 12 -4 15 -10z
m45 -21 c15 -28 5 -23 -15 7 -9 15 -12 23 -6 20 6 -4 16 -16 21 -27z m-437
-90 c4 -16 3 -18 -9 -8 -9 7 -14 8 -14 1 0 -6 4 -13 9 -17 6 -3 9 -14 8 -25
-3 -40 -27 2 -27 47 0 38 2 43 14 34 8 -6 16 -21 19 -32z m109 4 c-38 -48 -71
-78 -78 -71 -6 6 86 105 99 107 5 1 -5 -16 -21 -36z m193 27 c3 -5 1 -10 -4
-10 -6 0 -11 5 -11 10 0 6 2 10 4 10 3 0 8 -4 11 -10z m135 1 c0 -6 -4 -13
-10 -16 -13 -8 -13 -55 -1 -55 5 0 12 8 14 18 3 9 5 3 6 -15 0 -17 -3 -35 -9
-38 -5 -3 -9 -18 -7 -33 3 -37 -14 -40 -34 -6 -11 20 -13 33 -7 41 6 7 7 29 4
49 -5 22 -3 41 5 50 13 16 39 19 39 5z m-386 -52 c-5 -8 -10 -6 -16 5 -5 9 -6
21 -2 27 5 8 10 6 16 -5 5 -9 6 -21 2 -27z m413 19 c-3 -8 -6 -5 -6 6 -1 11 2
17 5 13 3 -3 4 -12 1 -19z m-296 -11 c-1 -12 -15 -9 -19 4 -3 6 1 10 8 8 6 -3
11 -8 11 -12z m192 -17 c-3 -12 -8 -19 -11 -16 -5 6 5 36 12 36 2 0 2 -9 -1
-20z m-186 -74 c0 -8 -6 -12 -14 -9 -7 3 -10 9 -7 14 8 14 21 11 21 -5z m-133
-30 c-3 -9 -10 -16 -15 -16 -6 0 -5 9 1 21 13 24 24 20 14 -5z m306 -26 c0 -5
-5 -10 -11 -10 -5 0 -7 5 -4 10 3 6 8 10 11 10 2 0 4 -4 4 -10z m-123 -35 c0
-8 -4 -12 -9 -9 -4 3 -8 9 -8 15 0 5 4 9 8 9 5 0 9 -7 9 -15z m170 -27 c-3 -7
-5 -2 -5 12 0 14 2 19 5 13 2 -7 2 -19 0 -25z m57 20 c-3 -4 -14 -8 -25 -8
-11 0 -18 4 -15 8 2 4 14 8 25 8 11 0 17 -4 15 -8z m-84 -68 c0 -5 -4 -10 -10
-10 -5 0 -10 5 -10 10 0 6 5 10 10 10 6 0 10 -4 10 -10z m-170 -44 c0 -3 -4
-8 -10 -11 -5 -3 -10 -1 -10 4 0 6 5 11 10 11 6 0 10 -2 10 -4z m100 0 c0 -3
-4 -8 -10 -11 -5 -3 -10 -1 -10 4 0 6 5 11 10 11 6 0 10 -2 10 -4z m-223 -20
c0 -8 -6 -12 -14 -9 -7 3 -10 9 -7 14 8 14 21 11 21 -5z m273 -50 c0 -2 -7 -7
-16 -10 -8 -3 -12 -2 -9 4 6 10 25 14 25 6z m-135 -24 c-3 -3 -11 0 -18 7 -9
10 -8 11 6 5 10 -3 15 -9 12 -12z m-171 -38 c3 -8 2 -12 -4 -9 -6 3 -10 10
-10 16 0 14 7 11 14 -7z m66 12 c0 -3 -4 -8 -10 -11 -5 -3 -10 -1 -10 4 0 6 5
11 10 11 6 0 10 -2 10 -4z m227 -18 c-3 -8 -6 -5 -6 6 -1 11 2 17 5 13 3 -3 4
-12 1 -19z m-63 -3 c3 -9 0 -15 -9 -15 -8 0 -15 7 -15 15 0 8 4 15 9 15 5 0
11 -7 15 -15z m43 -7 c-3 -8 -6 -5 -6 6 -1 11 2 17 5 13 3 -3 4 -12 1 -19z
m-14 -69 c-6 -6 -7 3 -4 23 4 28 6 29 9 9 2 -13 0 -27 -5 -32z m72 41 c13 0
13 -29 -1 -99 -6 -30 -11 -25 -19 19 -3 19 -12 41 -19 50 -17 19 -9 43 11 36
8 -3 21 -6 28 -6z m-139 -36 c-4 -9 -9 -15 -11 -12 -3 3 -3 13 1 22 4 9 9 15
11 12 3 -3 3 -13 -1 -22z m-103 1 c-3 -9 -8 -14 -10 -11 -3 3 -2 9 2 15 9 16
15 13 8 -4z m211 -55 l7 -35 -16 34 c-17 37 -20 60 -6 46 5 -6 12 -26 15 -45z
m-151 0 c3 -11 1 -18 -4 -14 -5 3 -9 12 -9 20 0 20 7 17 13 -6z m184 -55 c0
-8 -4 -12 -9 -9 -5 3 -6 10 -3 15 9 13 12 11 12 -6z m-100 -27 c-3 -8 -6 -5
-6 6 -1 11 2 17 5 13 3 -3 4 -12 1 -19z m83 4 c0 -4 -20 -28 -45 -52 -54 -53
-61 -32 -8 22 36 37 53 46 53 30z m35 -53 c3 -4 1 -16 -4 -26 -6 -10 -17 -35
-26 -55 -24 -54 -46 -58 -28 -5 8 22 12 51 8 64 -3 13 -3 28 0 33 6 9 43 2 50
-11z m33 -4 c-3 -3 -9 2 -12 12 -6 14 -5 15 5 6 7 -7 10 -15 7 -18z"/>
<path d="M278 1123 c-16 -2 -28 -9 -28 -14 0 -12 60 -2 75 12 9 9 3 10 -47 2z"/>
<path d="M247 653 c-12 -11 -8 -23 8 -23 8 0 15 7 15 15 0 16 -12 20 -23 8z"/>
</g>
</svg>
