<svg width="130" height="150" xmlns="http://www.w3.org/2000/svg" preserveAspectRatio="xMidYMid meet">

 <g>
  <title>background</title>
  <rect fill="none" id="canvas_background" height="152" width="132" y="-1" x="-1"/>
 </g>
 <g>
  <title>Layer 1</title>
  <g id="svg_1" fill="#000000" transform="translate(0,539) scale(0.10000000149011612,-0.10000000149011612) ">
   <path stroke="null" id="svg_2" d="m507.331988,5355.008263c-1.657014,-1.889954 -8.285072,-13.769664 -14.636961,-26.459354c-18.227159,-35.63913 -19.608005,-37.25909 -38.111333,-39.149044c-8.561242,-0.80998 -23.198203,-3.509914 -32.311783,-5.939855c-75.946497,-19.709519 -96.935348,-31.319235 -151.340657,-83.697956c-25.131386,-24.5694 -34.521135,-35.63913 -41.701531,-49.678787c-16.846314,-33.209189 -19.608005,-77.218114 -6.904227,-117.447132c4.418705,-14.039657 8.561242,-20.789492 20.160343,-32.399209c12.703778,-12.959684 13.808454,-14.579644 8.008903,-14.579644c-9.389749,0 -8.008903,-7.559815 1.657014,-8.639789l8.285072,-0.80998l-5.523382,-11.609716c-8.561242,-18.359552 -4.971043,-23.489426 18.227159,-25.37938c12.427609,-1.079974 10.770594,6.479842 -1.933184,9.449769c-12.15144,2.699934 -12.427609,3.779908 -4.971043,17.819565c2.761691,5.669862 4.694874,11.06973 3.866367,11.87971c-0.828507,0.80998 2.485522,4.049901 7.180396,7.289822c8.285072,5.669862 8.837411,5.669862 14.084623,1.079974c6.628058,-5.669862 10.494425,-2.699934 5.799551,4.589888c-1.933184,2.969927 -2.761691,6.479842 -1.933184,7.829809c2.209353,3.509914 11.599101,3.509914 13.808454,0c1.933184,-2.969927 25.407555,-3.239921 38.663671,-0.269993c5.799551,1.079974 8.285072,3.239921 8.285072,7.019829c0,3.509914 2.209353,5.669862 6.07572,6.209848c10.494425,1.349967 13.532285,7.829809 8.285072,16.739591c-7.456565,12.149703 -5.523382,12.149703 8.008903,0c11.599101,-10.529743 13.532285,-11.339723 23.474372,-9.719763c24.855217,3.779908 31.483275,14.039657 18.503328,28.079314c-4.971043,5.399868 -3.590198,4.859881 6.904227,-2.429941c7.456565,-5.129875 16.570145,-11.06973 20.160343,-13.229677c4.418705,-2.699934 7.180396,-7.559815 8.561242,-14.309651c0.828507,-5.399868 2.761691,-10.799736 4.418705,-11.87971c3.590198,-2.159947 10.218256,6.479842 12.15144,16.199604c0.828507,4.049901 3.314029,7.289822 5.523382,7.289822c2.761691,0 3.866367,-1.889954 2.761691,-5.399868c-1.657014,-5.939855 4.142536,-15.119631 8.008903,-12.68969c1.380845,0.80998 4.142536,-1.61996 5.799551,-5.129875c2.761691,-6.209848 2.485522,-7.019829 -3.590198,-9.449769c-4.418705,-1.349967 -6.628058,-4.049901 -6.07572,-7.019829c1.380845,-7.829809 7.456565,-7.019829 17.398652,2.699934c7.180396,7.019829 9.665918,8.369796 9.665918,4.859881c0,-2.429941 -1.104676,-5.669862 -2.485522,-7.019829c-1.380845,-1.61996 -3.03786,-7.019829 -3.590198,-12.149703c-0.828507,-9.179776 -1.104676,-9.449769 -16.017807,-11.339723c-23.474372,-3.239921 -43.910884,-14.579644 -54.681478,-30.509255c-5.247213,-7.559815 -12.703778,-15.659618 -17.122483,-18.359552c-20.98885,-12.959684 -80.641372,-26.18936 -95.002164,-21.059486c-3.590198,1.61996 -11.87527,9.989756 -18.227159,18.899538c-10.770594,15.119631 -19.331836,21.059486 -19.331836,13.49967c0,-4.859881 24.579048,-36.989097 30.378599,-40.229018c12.15144,-6.209848 56.614662,-0.269993 88.097937,11.87971c9.942087,3.779908 18.227159,7.019829 18.779498,7.019829c0.552338,0 0.828507,-2.429941 0.828507,-5.399868c0,-2.969927 1.657014,-5.399868 3.590198,-5.399868c1.657014,0 1.104676,-1.349967 -1.380845,-2.969927c-4.418705,-2.429941 -4.971043,-7.289822 -4.971043,-41.848978c0,-21.599473 -1.380845,-50.75876 -3.314029,-64.798418l-3.03786,-25.37938l-6.07572,9.989756c-16.846314,28.889295 -37.835164,57.508596 -41.701531,57.508596c-2.485522,0 -12.979947,-5.939855 -23.198203,-13.229677c-18.779498,-13.49967 -18.779498,-13.49967 -24.02671,-7.829809c-4.142536,4.589888 -4.971043,10.259749 -5.523382,34.019169c-0.276169,31.049242 -0.276169,30.509255 -19.608005,43.738932c-3.314029,2.159947 -7.456565,7.829809 -8.837411,12.419697c-4.418705,12.959684 -11.87527,18.359552 -22.645865,16.199604c-14.084623,-2.429941 -22.369696,-9.179776 -20.712681,-16.739591c0.828507,-4.049901 -1.380845,-9.719763 -5.247213,-15.119631c-3.590198,-4.589888 -6.628058,-10.799736 -6.628058,-13.229677c0,-2.699934 -2.485522,-5.399868 -5.247213,-6.479842c-2.761691,-0.80998 -6.628058,-5.129875 -8.561242,-9.449769c-2.761691,-6.479842 -2.209353,-10.259749 2.761691,-24.839393c9.389749,-25.649374 10.494425,-27.269334 18.779498,-25.649374c9.11358,1.61996 16.017807,-5.669862 9.942087,-10.259749c-6.351889,-4.319895 -8.008903,-28.619301 -2.761691,-38.609057c7.456565,-14.039657 5.799551,-22.409453 -6.628058,-34.289163c-6.07572,-5.669862 -11.046763,-11.609716 -11.046763,-12.68969c0,-1.079974 5.523382,-7.829809 12.427609,-15.119631c6.904227,-7.019829 12.427609,-13.769664 12.427609,-15.389624c0,-1.349967 -2.485522,-6.209848 -5.799551,-10.799736c-7.732734,-11.339723 -20.98885,-36.989097 -22.369696,-42.928952c-0.828507,-5.129875 5.523382,-8.099802 43.358546,-19.709519c42.806208,-13.229677 114.334,-37.529084 115.991014,-39.149044c0.552338,-0.539987 -0.276169,-8.639789 -1.657014,-18.359552c-1.657014,-9.719763 -1.933184,-20.249506 -1.104676,-23.219433c1.104676,-5.129875 -1.380845,-6.749835 -22.922034,-14.579644c-25.131386,-9.179776 -62.690381,-27.539327 -82.850724,-40.769004c-11.599101,-7.559815 -11.87527,-7.559815 -9.665918,-1.889954c2.485522,7.019829 2.485522,22.94944 0,25.37938c-0.828507,0.80998 -9.11358,1.889954 -18.227159,2.429941c-13.256116,0.80998 -17.398652,0 -21.265019,-4.319895c-2.485522,-2.699934 -6.904227,-5.129875 -9.665918,-5.129875c-8.008903,0 -11.322932,-9.179776 -8.008903,-21.059486c3.866367,-14.579644 11.046763,-20.249506 23.750541,-18.899538l10.218256,1.079974l-13.532285,-10.799736c-22.645865,-18.089558 -33.416459,-30.239262 -35.349642,-39.419037c-2.485522,-12.959684 -1.933184,-39.689031 1.104676,-51.028754c1.380845,-5.399868 3.03786,-12.959684 3.866367,-16.739591c2.761691,-13.229677 12.979947,-20.249506 42.253869,-29.159288c15.465469,-4.589888 32.864121,-8.369796 39.21601,-8.369796c8.008903,0 10.770594,-1.079974 9.665918,-3.509914c-1.933184,-4.859881 10.770594,-22.94944 41.9777,-60.20853c14.91313,-18.089558 29.826261,-36.179117 32.864121,-40.499011c3.03786,-4.049901 19.331836,-22.94944 35.901981,-41.848978c16.846314,-18.899538 41.701531,-48.598813 55.233816,-66.148385c24.855217,-32.669202 42.253869,-52.378721 46.120237,-52.378721c1.104676,0 11.87527,9.989756 23.750541,21.869466c20.98885,21.329479 21.817357,21.869466 26.512232,17.009585c12.15144,-11.609716 -4.694874,-87.747857 -23.198203,-104.487448c-10.218256,-9.179776 -10.218256,-11.87971 -1.104676,-15.929611c6.628058,-2.969927 18.779498,-1.349967 34.244966,4.319895c2.761691,1.079974 5.247213,-0.539987 6.904227,-4.319895c3.866367,-8.369796 15.465469,-14.309651 23.750541,-12.149703c4.142536,1.079974 10.494425,7.829809 16.846314,17.279578c5.799551,8.639789 12.427609,18.089558 15.189299,21.059486c6.904227,7.559815 13.256116,19.439525 17.398652,32.399209c1.933184,5.939855 6.07572,15.659618 9.11358,21.599473c8.008903,15.659618 18.227159,58.048582 15.741638,64.798418c-1.104676,3.239921 -10.494425,10.799736 -20.712681,17.279578c-29.273923,18.629545 -33.692628,38.06907 -16.570145,71.548253c5.247213,10.259749 11.599101,27.269334 14.084623,37.799077c2.485522,10.529743 7.456565,27.539327 11.046763,37.529084c3.590198,10.259749 6.628058,19.979512 6.628058,21.869466c0,8.369796 -17.674821,28.889295 -29.273923,34.019169c-6.351889,2.969927 -12.703778,5.399868 -13.532285,5.399868c-1.104676,0 -9.942087,5.129875 -19.608005,11.339723c-29.826261,19.169532 -27.616908,29.969268 9.11358,41.308991c27.616908,8.639789 63.24272,23.75942 70.146947,29.969268c4.418705,3.779908 5.523382,3.779908 11.87527,-0.269993c3.866367,-2.699934 7.180396,-5.399868 7.180396,-6.479842c0,-2.699934 31.207106,-17.279578 56.614662,-26.18936c20.436512,-7.289822 25.131386,-7.829809 59.376352,-7.829809c41.425362,0.269993 56.890831,3.509914 88.374106,18.899538c49.434266,24.299407 114.334,31.049242 175.919705,18.629545c51.367449,-10.259749 81.746048,-24.839393 94.725995,-45.628886c6.351889,-9.989756 9.665918,-11.609716 11.87527,-5.939855c4.694874,11.87971 -12.979947,47.788833 -49.986604,102.597495c-8.008903,11.87971 -30.10243,31.859222 -45.291729,41.308991c-5.523382,3.509914 -29.273923,14.309651 -53.024464,24.299407c-56.062323,23.219433 -76.498836,36.719103 -112.400816,73.438207c-30.378599,31.049242 -39.768348,44.548912 -68.766101,100.437547c-35.073473,67.768345 -71.251623,116.637152 -123.723748,166.855925c-18.779498,17.819565 -30.930937,26.459354 -59.928691,42.388965c-55.509985,30.779248 -93.345149,62.908464 -81.746048,69.928292c1.380845,0.80998 3.314029,6.209848 4.418705,11.609716c2.485522,13.229677 7.456565,22.139459 17.674821,31.859222c14.91313,14.309651 20.160343,35.909123 21.817357,91.257772c1.104676,39.149044 0.276169,51.568741 -3.314029,66.688371c-6.904227,27.809321 -27.616908,66.148385 -39.492179,73.7082c-1.933184,1.079974 -3.590198,4.049901 -3.590198,6.479842c0,4.319895 10.218256,24.029413 22.645865,43.738932c4.418705,6.749835 7.732734,13.229677 7.732734,14.579644c0,2.429941 -17.122483,0.80998 -32.311783,-2.699934c-6.351889,-1.349967 -6.351889,-0.80998 -6.351889,21.869466c0,17.819565 -0.828507,23.75942 -3.866367,24.839393c-2.209353,0.80998 -13.532285,-4.859881 -25.131386,-12.419697c-11.599101,-7.829809 -22.369696,-12.959684 -23.474372,-11.609716c-1.104676,1.079974 -4.142536,8.909782 -6.904227,17.009585c-5.799551,17.549571 -7.732734,20.249506 -11.599101,15.659618zm-4.142536,-313.192352c1.933184,-1.889954 3.314029,-8.639789 3.03786,-15.389624l-0.276169,-12.419697l-3.314029,9.179776c-3.590198,10.259749 -11.046763,16.469598 -19.331836,16.469598c-4.694874,0 -4.971043,0.539987 -1.657014,2.699934c5.799551,3.509914 17.674821,3.239921 21.541188,-0.539987zm-11.322932,-24.299407c-0.828507,-2.159947 -1.657014,-1.349967 -1.657014,1.61996c-0.276169,2.969927 0.552338,4.589888 1.380845,3.509914c0.828507,-0.80998 1.104676,-3.239921 0.276169,-5.129875zm28.445415,-96.65764c0,-5.939855 0.552338,-6.749835 5.799551,-8.639789c2.761691,-1.079974 5.247213,-3.239921 5.247213,-4.589888c0,-1.61996 -1.933184,-2.159947 -4.142536,-1.349967c-2.209353,1.079974 -6.07572,0.80998 -8.561242,0c-4.142536,-1.61996 -4.142536,-2.159947 0.276169,-7.019829c6.904227,-7.559815 2.209353,-6.749835 -8.837411,1.61996c-9.389749,7.019829 -11.599101,13.769664 -5.799551,19.439525c4.142536,4.049901 16.017807,4.319895 16.017807,0.539987zm-243.857299,-28.079314c4.142536,-8.099802 9.665918,-14.039657 17.398652,-18.089558l11.322932,-6.209848l-0.552338,-24.5694c-0.552338,-24.299407 2.209353,-36.179117 10.218256,-44.818906c3.590198,-4.049901 2.485522,-5.669862 -10.218256,-17.009585c-7.732734,-6.749835 -15.189299,-12.419697 -16.293976,-12.419697c-1.380845,0 -3.866367,4.589888 -5.799551,10.259749c-4.142536,12.68969 -7.456565,16.739591 -13.808454,16.739591c-2.761691,0 -10.218256,6.209848 -16.570145,13.49967c-6.628058,7.829809 -13.256116,13.229677 -15.465469,12.419697c-4.694874,-1.889954 -11.87527,11.87971 -11.87527,22.409453c0,6.479842 1.380845,8.639789 6.628058,9.989756c4.971043,1.079974 7.456565,4.049901 8.837411,9.989756c1.104676,4.859881 4.142536,11.609716 6.904227,15.119631c3.03786,3.509914 5.247213,9.719763 5.247213,14.039657c0,7.289822 3.03786,9.449769 14.084623,10.259749c2.485522,0.269993 6.628058,-4.589888 9.942087,-11.609716zm321.184642,2.429941c1.933184,-2.159947 6.351889,-4.049901 9.942087,-4.049901c7.732734,0 14.91313,-6.749835 14.91313,-13.769664c0,-7.019829 -3.866367,-8.099802 -21.541188,-5.669862c-14.91313,1.889954 -20.436512,6.749835 -9.665918,8.099802c6.07572,0.80998 6.07572,1.349967 2.209353,8.639789c-2.209353,4.319895 -4.142536,8.369796 -4.142536,9.449769c0,2.699934 4.971043,1.349967 8.285072,-2.699934zm-159.625729,-65.338404c5.523382,-4.859881 6.628058,-12.959684 1.933184,-15.929611c-1.657014,-0.80998 -2.209353,-4.589888 -1.380845,-7.829809c2.485522,-9.719763 -2.761691,-10.529743 -6.628058,-1.079974c-3.03786,7.019829 -2.761691,8.369796 1.104676,11.339723c4.694874,3.509914 3.590198,12.68969 -1.380845,12.68969c-1.380845,0 -2.485522,1.349967 -2.485522,2.699934c0,4.049901 3.03786,3.239921 8.837411,-1.889954zm-68.489932,-15.659618c1.657014,-4.589888 -84.783908,-92.607739 -106.325096,-108.267356c-11.322932,-7.829809 -14.360792,-9.179776 -17.674821,-6.479842c-2.209353,1.889954 -4.142536,4.859881 -4.142536,6.749835c0,1.61996 9.665918,12.149703 21.541188,22.94944c11.599101,11.06973 33.14029,31.049242 47.501082,44.548912c23.750541,22.679446 51.09128,44.278919 55.509985,44.548912c1.104676,0 2.485522,-1.889954 3.590198,-4.049901zm162.939758,-5.939855c0.828507,-2.159947 0.552338,-5.939855 -0.828507,-8.369796c-1.933184,-3.239921 -0.828507,-6.749835 3.03786,-12.149703c7.456565,-10.259749 4.142536,-12.68969 -4.142536,-2.969927l-6.628058,7.559815l-3.314029,-5.939855c-1.933184,-3.509914 -4.418705,-5.399868 -5.799551,-4.589888c-3.866367,2.429941 -1.657014,28.349308 2.485522,31.049242c4.971043,2.699934 13.256116,0.269993 15.189299,-4.589888zm132.837328,-14.579644c1.104676,-5.399868 0,-7.289822 -7.456565,-10.529743c-4.971043,-2.159947 -8.837411,-4.859881 -8.285072,-5.939855c0.276169,-1.349967 0.552338,-14.039657 0.828507,-28.349308c0,-17.819565 0.828507,-24.5694 2.485522,-20.789492c1.380845,3.239921 4.694874,7.559815 7.732734,9.449769c2.761691,2.159947 7.180396,7.289822 9.389749,11.609716l4.142536,7.829809l1.657014,-9.179776c0.828507,-5.129875 2.485522,-15.119631 3.314029,-22.679446c0.828507,-7.289822 2.209353,-16.199604 3.03786,-19.709519c1.104676,-5.129875 0.276169,-6.209848 -3.590198,-4.859881c-3.03786,0.80998 -8.837411,-1.889954 -15.465469,-7.829809l-10.494425,-8.909782l5.799551,-18.629545c4.142536,-13.769664 4.971043,-20.519499 3.03786,-25.37938c-3.590198,-9.989756 -10.218256,-14.039657 -18.503328,-12.149703c-8.285072,2.159947 -13.808454,13.229677 -16.570145,33.209189c-1.380845,10.799736 -3.314029,14.849637 -9.665918,19.439525c-9.942087,7.019829 -10.218256,14.309651 -1.104676,21.329479c6.628058,5.129875 6.904227,6.209848 5.523382,30.509255c-0.828507,14.039657 -2.209353,32.399209 -2.761691,41.308991c-1.380845,14.849637 -0.828507,16.199604 7.732734,24.029413c4.694874,4.319895 13.808454,10.259749 19.884174,12.959684l11.046763,4.859881l3.314029,-7.559815c1.933184,-4.049901 3.866367,-10.529743 4.971043,-14.039657zm-390.503081,-21.329479l4.142536,-13.49967l-8.285072,-7.829809l-8.561242,-8.099802l-6.07572,12.68969c-5.247213,11.06973 -5.523382,14.579644 -3.03786,24.029413c2.485522,10.529743 3.03786,11.06973 10.218256,8.639789c5.799551,-1.889954 8.561242,-5.669862 11.599101,-15.929611zm108.534449,-1.61996c2.485522,-0.80998 4.418705,-4.589888 4.418705,-7.829809c0,-4.589888 1.933184,-6.749835 6.351889,-7.289822c3.314029,-0.539987 5.799551,-1.889954 5.247213,-3.509914c-0.552338,-1.349967 -3.590198,-2.159947 -6.904227,-1.61996c-5.799551,0.80998 -5.799551,0.539987 -1.104676,-4.319895c9.942087,-11.06973 3.866367,-11.87971 -11.87527,-1.889954c-11.87527,7.829809 -13.532285,12.68969 -6.628058,22.139459c4.694874,6.749835 4.418705,6.479842 10.494425,4.319895zm214.307207,-13.229677c4.971043,-5.669862 1.380845,-16.199604 -6.904227,-19.709519c-5.247213,-2.429941 -6.904227,-5.129875 -6.904227,-11.609716c0,-9.449769 -6.351889,-9.719763 -7.732734,-0.269993c-0.552338,3.509914 -2.209353,5.129875 -4.971043,4.049901c-6.351889,-2.429941 -4.418705,7.289822 3.590198,17.819565c11.322932,14.849637 16.570145,17.009585 22.922034,9.719763zm-198.2894,-76.138141c6.351889,-5.669862 6.351889,-7.559815 -0.828507,-14.039657c-3.866367,-3.509914 -5.523382,-7.289822 -4.418705,-10.799736c0.828507,-3.779908 0,-5.669862 -2.485522,-5.669862c-1.933184,0 -4.694874,3.239921 -5.523382,7.019829c-1.380845,5.669862 -3.03786,6.479842 -8.561242,5.129875c-6.07572,-1.349967 -6.628058,-0.80998 -4.971043,4.589888c1.104676,3.509914 3.590198,7.559815 5.799551,9.179776c2.209353,1.61996 3.866367,4.319895 3.866367,6.209848c0,4.589888 11.322932,3.509914 17.122483,-1.61996zm126.485439,3.239921c0,-0.80998 -1.104676,-3.509914 -2.485522,-6.209848c-1.380845,-2.429941 -4.142536,-8.639789 -5.799551,-13.229677c-4.418705,-11.339723 -9.11358,-11.87971 -4.971043,-0.539987c3.590198,10.259749 1.380845,12.419697 -7.180396,6.749835c-8.561242,-5.399868 -12.427609,-0.80998 -4.418705,5.669862c7.180396,6.209848 24.855217,11.339723 24.855217,7.559815zm-254.075555,-25.37938c0,-8.369796 -21.265019,-38.06907 -27.340739,-38.06907c-3.03786,0 -6.351889,1.079974 -7.180396,2.699934c-1.657014,2.699934 6.351889,19.439525 17.398652,35.63913c5.523382,8.369796 7.456565,9.719763 11.87527,7.289822c3.03786,-1.349967 5.247213,-4.859881 5.247213,-7.559815zm293.291564,-31.859222c0.552338,-6.479842 1.933184,-7.559815 8.561242,-7.019829c4.142536,0.269993 7.456565,-0.539987 7.456565,-1.889954c0,-3.509914 -17.674821,-16.199604 -22.922034,-16.199604c-6.351889,0 -9.11358,11.06973 -3.590198,14.849637c2.485522,1.889954 4.418705,6.479842 4.418705,10.529743c0,9.449769 4.971043,9.179776 6.07572,-0.269993zm-300.195791,-13.769664c-2.209353,-2.159947 -6.904227,2.699934 -5.247213,5.399868c1.104676,1.61996 2.485522,1.349967 4.142536,-0.80998c1.104676,-1.889954 1.657014,-4.049901 1.104676,-4.589888zm409.834917,-12.149703c3.866367,-4.859881 1.104676,-7.289822 -8.285072,-7.289822c-8.008903,0 -12.15144,3.509914 -9.389749,8.099802c2.485522,4.049901 14.084623,3.239921 17.674821,-0.80998zm-221.487603,-7.289822c0.828507,-2.969927 4.418705,-6.209848 8.008903,-7.019829c9.389749,-2.429941 8.285072,-7.289822 -1.657014,-5.939855c-8.561242,1.349967 -12.15144,-2.699934 -9.389749,-9.989756c2.761691,-7.019829 -4.418705,-4.319895 -12.15144,4.589888c-7.456565,8.639789 -8.008903,14.039657 -2.761691,20.519499c4.694874,5.399868 16.293976,4.049901 17.95099,-2.159947zm187.518806,-9.449769c6.07572,5.939855 8.285072,5.129875 16.570145,-5.399868c4.694874,-6.209848 6.628058,-11.06973 5.247213,-14.039657c-1.657014,-4.319895 -2.485522,-4.049901 -8.561242,2.699934l-6.628058,7.559815l-2.761691,-7.289822l-3.03786,-7.289822l-7.456565,7.019829c-4.418705,4.049901 -8.561242,7.289822 -9.665918,7.289822c-1.104676,0 -1.933184,-5.399868 -1.933184,-12.149703c0,-8.639789 -1.104676,-12.149703 -3.866367,-12.149703c-5.523382,0 -6.628058,4.859881 -5.523382,20.249506c1.933184,21.059486 2.485522,21.599473 13.808454,15.119631c8.561242,-5.129875 10.218256,-5.129875 13.808454,-1.61996zm42.530039,-1.889954c0,-8.099802 -0.276169,-8.369796 -4.142536,-3.239921c-5.247213,6.749835 -5.247213,11.87971 0,11.87971c2.761691,0 4.142536,-2.699934 4.142536,-8.639789zm-8.008903,-5.129875c4.418705,-8.369796 -1.933184,-14.039657 -7.456565,-6.749835c-2.209353,2.969927 -3.866367,7.019829 -3.866367,8.909782c0,5.669862 7.732734,4.049901 11.322932,-2.159947zm-172.329507,-15.119631c0.828507,-2.699934 4.971043,-7.559815 8.837411,-11.06973l7.180396,-6.209848l-9.11358,1.349967c-6.628058,1.079974 -9.389749,0.269993 -10.494425,-2.429941c-3.03786,-7.289822 -9.389749,-4.589888 -9.389749,3.779908c0,4.319895 -1.657014,8.369796 -3.314029,9.179776c-2.761691,0.80998 -2.761691,1.889954 0.276169,5.399868c4.971043,5.939855 13.808454,5.939855 16.017807,0zm95.002164,-46.708859c6.904227,-3.779908 6.628058,-7.829809 -2.209353,-17.279578c-6.351889,-7.289822 -7.180396,-7.559815 -10.494425,-3.509914c-1.933184,2.699934 -5.247213,4.049901 -8.008903,2.969927c-5.247213,-1.889954 -5.799551,2.429941 -0.828507,7.559815c1.933184,1.889954 4.418705,5.669862 5.523382,8.369796c1.933184,5.129875 8.008903,5.939855 16.017807,1.889954zm-189.175821,-42.118971c-1.380845,-3.509914 -0.276169,-4.049901 6.628058,-3.239921c5.523382,0.80998 8.285072,0 8.285072,-2.429941c0,-1.889954 -1.933184,-3.509914 -4.142536,-3.509914c-2.485522,0 -4.142536,-2.429941 -4.142536,-6.749835c0,-9.449769 -9.665918,-14.039657 -16.846314,-7.829809c-6.628058,5.669862 -6.628058,12.959684 -0.276169,21.329479c5.247213,7.559815 13.256116,9.179776 10.494425,2.429941zm112.953154,-6.479842c4.694874,-5.129875 4.694874,-5.669862 0,-10.799736c-4.142536,-4.589888 -4.418705,-6.479842 -1.933184,-12.419697c3.866367,-8.099802 4.142536,-11.87971 0.828507,-11.87971c-1.380845,0 -4.418705,5.129875 -7.180396,11.609716l-4.694874,11.339723l-6.07572,-7.289822c-5.799551,-7.289822 -12.703778,-9.989756 -12.703778,-5.399868c0,1.349967 2.485522,4.589888 5.247213,7.019829c3.03786,2.699934 7.456565,8.909782 9.942087,14.039657c4.971043,10.529743 9.389749,11.609716 16.570145,3.779908zm-228.667999,-9.719763c0.828507,-2.429941 0.276169,-6.749835 -1.380845,-9.179776c-2.485522,-4.049901 -1.933184,-5.669862 3.03786,-8.909782c8.561242,-5.669862 3.866367,-8.639789 -6.628058,-4.589888c-7.180396,2.969927 -8.837411,2.969927 -11.046763,-0.269993c-3.866367,-5.669862 -7.456565,1.079974 -5.799551,11.339723c0.828507,5.129875 3.866367,9.449769 8.561242,11.87971c9.389749,4.859881 11.046763,4.859881 13.256116,-0.269993zm-58.824014,-2.429941c0.828507,-2.159947 0.276169,-4.049901 -1.104676,-4.049901c-1.657014,0 -2.761691,1.889954 -2.761691,4.049901c0,2.159947 0.552338,4.049901 1.104676,4.049901c0.552338,0 1.657014,-1.889954 2.761691,-4.049901zm399.89283,-4.589888c-1.657014,-1.889954 -6.904227,-5.669862 -12.15144,-8.369796l-9.11358,-4.859881l10.770594,9.449769c10.218256,9.179776 17.122483,11.609716 10.494425,3.779908zm-186.690299,-59.39855c-0.828507,-4.859881 -2.209353,-13.769664 -3.03786,-19.709519c-1.657014,-11.87971 -8.008903,-20.249506 -15.741638,-20.249506c-6.904227,0 -11.599101,11.87971 -7.456565,19.439525c2.761691,4.859881 2.209353,6.479842 -3.03786,10.259749c-4.418705,3.239921 -5.247213,5.129875 -3.03786,6.749835c2.209353,1.079974 6.628058,-1.079974 11.599101,-5.669862c4.418705,-4.049901 8.561242,-6.749835 9.665918,-5.939855c0.828507,1.079974 2.209353,6.749835 3.03786,12.68969c1.104676,7.019829 3.03786,11.06973 5.523382,11.06973c2.761691,0 3.590198,-2.429941 2.485522,-8.639789zm-186.690299,-38.609057c2.761691,-3.509914 2.761691,-5.129875 -0.828507,-8.909782c-3.866367,-4.319895 -3.866367,-5.129875 0.828507,-11.339723c6.351889,-7.829809 6.904227,-10.799736 1.933184,-10.799736c-1.933184,0 -5.799551,3.779908 -8.285072,8.099802c-5.799551,9.449769 -10.770594,10.529743 -9.665918,2.159947c0.552338,-3.509914 -0.276169,-6.749835 -1.933184,-7.559815c-5.523382,-2.699934 -4.694874,16.199604 1.380845,24.299407c6.628058,8.909782 11.322932,10.259749 16.570145,4.049901zm59.376352,-0.269993c2.485522,-2.429941 6.904227,-3.779908 9.665918,-2.969927c9.389749,2.429941 9.11358,-3.509914 0,-6.749835c-7.180396,-2.429941 -8.561242,-3.779908 -7.180396,-9.179776c1.933184,-7.559815 0,-8.099802 -11.599101,-2.159947c-9.942087,4.589888 -11.87527,14.039657 -4.418705,21.059486c5.523382,5.399868 8.008903,5.399868 13.532285,0zm176.748212,-9.719763c-4.971043,-15.929611 -4.694874,-17.279578 1.933184,-17.009585c12.979947,0 7.456565,-5.399868 -7.456565,-7.829809c-17.95099,-2.969927 -20.712681,-1.079974 -20.712681,14.309651c0,8.369796 0.552338,8.909782 8.561242,7.829809c6.07572,-1.079974 9.11358,0 11.046763,3.779908c3.866367,7.019829 9.11358,6.209848 6.628058,-1.079974zm45.01556,-8.099802c0.828507,-10.799736 -8.561242,-70.468279 -14.084623,-88.287844c-3.03786,-9.989756 -3.590198,-10.529743 -8.561242,-7.019829c-5.247213,3.779908 -5.247213,4.589888 1.933184,41.038998c3.866367,20.519499 8.008903,43.738932 9.11358,51.568741c1.380845,11.339723 2.485522,14.039657 6.351889,13.49967c3.03786,-0.539987 4.694874,-4.049901 5.247213,-10.799736zm-325.879516,-17.009585c-0.828507,-0.80998 -2.485522,0.539987 -3.314029,3.239921c-1.657014,3.779908 -1.380845,4.049901 1.380845,1.61996c1.933184,-1.889954 2.761691,-4.049901 1.933184,-4.859881zm354.048762,-13.769664c5.247213,-1.889954 13.808454,-3.509914 18.779498,-3.779908c9.665918,0 26.512232,-5.939855 29.273923,-10.259749c0.828507,-1.349967 -1.380845,-8.099802 -5.247213,-14.579644c-6.07572,-10.799736 -6.904227,-14.849637 -6.628058,-42.928952c0.276169,-32.129215 -3.03786,-45.898879 -13.256116,-56.968609c-6.904227,-7.559815 -9.389749,-5.669862 -7.456565,5.669862c1.657014,10.259749 -4.418705,35.369136 -17.122483,69.388306c-4.418705,12.419697 -13.256116,22.679446 -19.055667,22.679446c-4.971043,0 -4.971043,2.159947 -0.828507,22.139459c2.761691,12.68969 4.142536,15.389624 7.732734,14.039657c2.209353,-1.079974 8.561242,-3.509914 13.808454,-5.399868zm-106.601265,-23.219433c2.209353,-3.509914 2.209353,-6.209848 -0.552338,-10.529743c-3.314029,-4.859881 -3.03786,-5.669862 1.933184,-7.019829c3.314029,-0.80998 5.799551,-3.239921 5.799551,-5.399868c0,-2.699934 -1.657014,-3.509914 -4.142536,-2.429941c-2.209353,0.80998 -6.07572,2.429941 -8.285072,3.239921c-3.03786,1.349967 -4.142536,-0.269993 -4.142536,-6.749835c0,-5.669862 -1.380845,-8.369796 -4.142536,-8.369796c-3.314029,0 -4.142536,3.509914 -4.142536,16.469598c0,8.909782 1.380845,18.629545 3.03786,21.599473c3.314029,6.209848 10.218256,5.939855 14.636961,-0.80998zm-101.906391,-10.799736c12.15144,-10.259749 5.799551,-28.889295 -8.561242,-25.37938c-3.314029,0.80998 -7.180396,0.539987 -8.008903,-1.079974c-0.828507,-1.349967 -3.03786,-2.699934 -4.694874,-2.699934c-2.761691,0 -2.209353,4.319895 2.209353,14.579644c2.209353,5.399868 2.209353,5.399868 -11.87527,-0.269993c-1.933184,-0.80998 -3.590198,0.269993 -3.590198,2.159947c0,2.699934 20.712681,17.009585 26.788401,18.359552c0.552338,0.269993 3.866367,-2.429941 7.732734,-5.669862zm193.042188,-13.769664c4.694874,-6.749835 21.817357,-58.858563 19.884174,-60.478523c-0.552338,-0.539987 -5.799551,4.589888 -11.599101,11.609716c-6.07572,7.019829 -14.084623,16.469598 -18.227159,20.789492c-8.561242,9.179776 -8.837411,9.989756 -4.694874,24.299407c3.03786,11.339723 8.837411,12.959684 14.636961,3.779908zm-139.189217,-38.609057c0,-2.159947 -1.657014,-6.209848 -3.314029,-9.179776c-3.03786,-4.589888 -2.485522,-5.939855 2.761691,-9.449769c6.351889,-4.589888 8.008903,-9.449769 3.314029,-9.449769c-1.657014,0 -5.799551,2.429941 -9.11358,5.669862l-6.07572,5.669862l-2.485522,-7.019829c-4.418705,-11.87971 -8.008903,-8.099802 -6.07572,6.479842c1.104676,7.559815 2.485522,15.389624 3.314029,17.549571c3.03786,7.019829 17.674821,7.019829 17.674821,-0.269993zm95.554502,-0.80998c-5.523382,-5.939855 -3.314029,-8.369796 7.180396,-8.369796c4.142536,0 7.732734,-1.079974 7.732734,-2.699934c0,-4.589888 -32.035613,-3.239921 -36.17815,1.61996c-4.971043,5.939855 0.276169,13.229677 9.665918,13.49967c3.866367,0.269993 8.008903,1.079974 9.11358,1.889954c3.866367,4.049901 6.351889,-1.889954 2.485522,-5.939855zm-109.362956,-57.778589c-0.828507,-0.539987 -5.523382,4.049901 -10.770594,9.989756l-9.665918,11.06973l10.770594,-9.989756c6.07572,-5.669862 10.218256,-10.529743 9.665918,-11.06973zm106.601265,-11.06973c0.828507,-3.509914 1.104676,-9.989756 0.552338,-14.039657c-0.552338,-6.209848 -2.209353,-7.829809 -7.732734,-7.829809c-4.418705,0 -8.008903,2.159947 -9.942087,6.209848c-1.657014,3.509914 -4.694874,7.829809 -6.351889,9.449769c-4.142536,4.049901 -3.866367,7.289822 1.104676,7.289822c2.209353,0 4.142536,-1.079974 4.142536,-2.699934c0,-1.349967 1.933184,-2.699934 4.142536,-2.699934c2.209353,0 4.142536,2.429941 4.142536,5.399868c0,7.559815 7.732734,6.749835 9.942087,-1.079974zm-84.23157,-12.959684c12.703778,-15.389624 8.008903,-12.419697 -6.07572,4.049901c-6.628058,7.559815 -9.942087,12.419697 -7.180396,10.259749c2.761691,-2.159947 8.561242,-8.369796 13.256116,-14.309651zm163.215927,-6.749835c-3.314029,-5.669862 -84.23157,-89.907804 -86.440922,-89.907804c-1.380845,0 -5.523382,4.319895 -9.665918,9.449769l-7.456565,9.719763l19.055667,18.089558c10.494425,9.989756 30.930937,30.779248 45.01556,46.168873l26.236063,27.809321l7.456565,-8.909782c4.142536,-5.129875 6.628058,-10.529743 5.799551,-12.419697zm9.665918,-36.44911c4.418705,-2.699934 11.322932,-4.859881 15.465469,-4.859881c17.398652,0 23.198203,-9.449769 13.256116,-21.869466c-7.180396,-9.179776 -19.608005,-33.749176 -24.02671,-48.058826c-2.209353,-6.749835 -6.07572,-15.659618 -8.561242,-19.439525c-2.761691,-4.049901 -9.389749,-13.769664 -14.91313,-21.599473c-8.285072,-12.419697 -11.87527,-15.389624 -24.302879,-19.169532c-9.665918,-2.969927 -13.532285,-3.239921 -11.599101,-1.079974c3.314029,3.779908 14.91313,35.369136 19.608005,52.648714c1.657014,6.749835 3.314029,22.409453 3.03786,35.099143c0,20.249506 -0.552338,23.75942 -5.799551,27.809321l-6.07572,4.859881l14.636961,14.849637c13.256116,13.769664 14.91313,14.849637 18.227159,10.529743c1.933184,-2.699934 6.904227,-7.019829 11.046763,-9.719763zm-121.790565,-0.80998c0.276169,-4.319895 1.380845,-9.989756 2.485522,-12.419697c0.828507,-2.699934 0.552338,-5.399868 -1.104676,-6.479842c-1.657014,-0.80998 -3.866367,0.539987 -4.971043,3.239921c-1.104676,2.699934 -4.418705,6.749835 -7.180396,9.179776c-7.180396,5.669862 -4.142536,16.739591 4.418705,15.389624c4.694874,-0.539987 6.07572,-2.699934 6.351889,-8.909782z"/>
   <path stroke="null" id="svg_3" d="m507.884326,4915.458996c-2.209353,-3.509914 1.104676,-8.639789 4.418705,-6.749835c3.314029,2.159947 3.314029,9.449769 0,9.449769c-1.657014,0 -3.590198,-1.079974 -4.418705,-2.699934z"/>
   <path stroke="null" id="svg_4" d="m605.92435,4880.359854c0,-1.349967 1.104676,-2.699934 2.485522,-2.699934c1.657014,0 3.590198,1.349967 4.418705,2.699934c0.828507,1.61996 -0.276169,2.699934 -2.485522,2.699934c-2.485522,0 -4.418705,-1.079974 -4.418705,-2.699934z"/>
   <path stroke="null" id="svg_5" d="m520.311935,4801.791772c0,-4.859881 0.552338,-5.129875 4.142536,-2.429941c2.209353,1.889954 4.142536,4.319895 4.142536,5.669862c0,1.349967 -1.933184,2.429941 -4.142536,2.429941c-2.485522,0 -4.142536,-2.429941 -4.142536,-5.669862z"/>
   <path stroke="null" id="svg_6" d="m376.980181,4757.24286c0,-2.969927 0.828507,-3.779908 1.657014,-1.61996c0.828507,1.889954 0.552338,4.319895 -0.276169,5.129875c-0.828507,1.079974 -1.657014,-0.539987 -1.380845,-3.509914z"/>
   <path stroke="null" id="svg_7" d="m585.487838,4749.143058c-1.104676,-2.699934 -0.276169,-3.779908 1.657014,-3.239921c4.142536,1.349967 6.351889,7.559815 2.761691,7.559815c-1.380845,0 -3.590198,-1.889954 -4.418705,-4.319895z"/>
   <path stroke="null" id="svg_8" d="m386.646099,4673.544904c-1.104676,-2.969927 -0.276169,-3.779908 3.03786,-3.239921c2.485522,0.539987 4.971043,2.429941 5.799551,4.319895c1.657014,4.859881 -6.904227,4.049901 -8.837411,-1.079974z"/>
   <path stroke="null" id="svg_9" d="m441.051408,4592.276888c-4.971043,-1.889954 -4.418705,-8.909782 0.552338,-8.909782c2.209353,0 4.142536,2.429941 4.142536,5.399868c0,2.969927 -0.276169,5.399868 -0.552338,5.129875c-0.552338,0 -2.485522,-0.80998 -4.142536,-1.61996z"/>
   <path stroke="null" id="svg_10" d="m589.354205,4507.768952c0,-1.349967 1.380845,-2.699934 2.761691,-2.699934c1.657014,0 2.761691,1.349967 2.761691,2.699934c0,1.61996 -1.104676,2.699934 -2.761691,2.699934c-1.380845,0 -2.761691,-1.079974 -2.761691,-2.699934z"/>
   <path stroke="null" id="svg_11" d="m399.349877,4458.630152c1.657014,-4.859881 7.732734,-5.669862 7.732734,-1.079974c0,2.429941 -1.933184,4.319895 -4.418705,4.319895c-2.485522,0 -3.866367,-1.349967 -3.314029,-3.239921z"/>
   <path stroke="null" id="svg_12" d="m512.026862,4460.250113c0,-2.159947 1.380845,-3.239921 2.761691,-2.429941c1.657014,0.80998 2.761691,2.699934 2.761691,4.319895c0,1.349967 -1.104676,2.429941 -2.761691,2.429941c-1.380845,0 -2.761691,-1.889954 -2.761691,-4.319895z"/>
   <path stroke="null" id="svg_13" d="m426.414447,4364.672446c0,-3.509914 1.380845,-5.399868 3.590198,-4.589888c1.657014,0.539987 3.314029,2.699934 3.314029,4.589888c0,1.889954 -1.657014,4.049901 -3.314029,4.859881c-2.209353,0.539987 -3.590198,-1.349967 -3.590198,-4.859881z"/>
   <path stroke="null" id="svg_14" d="m310.423433,4345.772908c0,-1.349967 1.380845,-2.699934 2.761691,-2.699934c1.657014,0 2.761691,1.349967 2.761691,2.699934c0,1.61996 -1.104676,2.699934 -2.761691,2.699934c-1.380845,0 -2.761691,-1.079974 -2.761691,-2.699934z"/>
   <path stroke="null" id="svg_15" d="m478.886572,4327.143363c0,-3.239921 1.380845,-5.669862 2.761691,-5.669862c1.657014,0 2.761691,1.61996 2.761691,3.779908c0,2.159947 -1.104676,4.859881 -2.761691,5.669862c-1.380845,0.80998 -2.761691,-0.80998 -2.761691,-3.779908z"/>
   <path stroke="null" id="svg_16" d="m352.401133,4257.485064c0.552338,-2.699934 2.761691,-4.859881 4.971043,-4.859881c2.209353,0 4.418705,2.159947 4.971043,4.859881c0.552338,3.239921 -0.828507,4.589888 -4.971043,4.589888c-4.142536,0 -5.523382,-1.349967 -4.971043,-4.589888z"/>
   <path stroke="null" id="svg_17" d="m494.075872,4210.776205c0.828507,-1.349967 2.209353,-2.699934 3.03786,-2.699934c0.552338,0 1.104676,1.349967 1.104676,2.699934c0,1.61996 -1.380845,2.699934 -3.03786,2.699934c-1.380845,0 -1.933184,-1.079974 -1.104676,-2.699934z"/>
   <path stroke="null" id="svg_18" d="m365.657249,4989.43719c-6.904227,-2.159947 -22.645865,-4.589888 -35.073473,-5.669862c-16.846314,-1.079974 -22.922034,-2.699934 -22.922034,-5.399868c0,-2.969927 6.628058,-3.509914 34.521135,-2.969927c25.407555,0.539987 34.244966,1.61996 33.416459,4.049901c-0.828507,1.889954 1.104676,4.049901 4.142536,4.859881c5.799551,1.889954 7.456565,9.719763 1.933184,9.179776c-1.933184,-0.269993 -9.11358,-1.889954 -16.017807,-4.049901z"/>
   <path stroke="null" id="svg_19" d="m182.280979,4812.051522c-7.456565,-2.429941 -7.732734,-3.239921 -6.351889,-15.119631c0.828507,-6.749835 0.276169,-26.459354 -0.828507,-43.468938c-2.209353,-26.729347 -1.933184,-31.589229 1.933184,-35.63913c4.142536,-4.589888 4.142536,-5.399868 -0.276169,-9.989756c-6.904227,-7.559815 -4.694874,-13.769664 6.904227,-19.709519c7.732734,-3.779908 11.599101,-4.319895 17.398652,-2.429941c3.866367,1.61996 7.180396,4.859881 7.180396,7.019829c0,2.429941 1.104676,3.779908 2.485522,2.969927c4.418705,-2.699934 11.322932,1.349967 11.322932,6.479842c0,2.699934 1.933184,6.479842 4.418705,8.369796c3.590198,2.699934 4.142536,6.479842 3.03786,16.469598c-0.828507,7.019829 -0.552338,13.49967 1.104676,14.309651c5.799551,3.509914 -0.552338,33.749176 -7.180396,33.749176c-3.03786,0 -3.314029,-3.239921 -2.209353,-14.849637c0.828507,-8.099802 1.104676,-14.849637 0.276169,-14.849637c-0.828507,0 -5.247213,6.209848 -9.942087,13.49967c-9.389749,14.579644 -17.122483,17.819565 -17.122483,7.019829c0,-3.509914 1.933184,-7.019829 3.866367,-7.829809c2.209353,-0.80998 6.351889,-5.669862 8.837411,-10.529743c2.485522,-4.859881 6.351889,-9.989756 8.285072,-11.609716c1.657014,-1.349967 4.142536,-5.399868 5.247213,-8.639789c1.380845,-5.129875 0.552338,-6.209848 -4.142536,-6.209848c-5.247213,0 -5.799551,-1.079974 -4.142536,-8.099802c1.933184,-8.639789 -1.380845,-10.529743 -6.904227,-4.049901c-1.933184,2.159947 -4.971043,4.049901 -6.628058,4.049901c-1.933184,0 -6.07572,2.699934 -9.389749,6.209848c-5.523382,5.669862 -5.799551,7.559815 -3.590198,39.689031c1.104676,18.629545 1.104676,34.289163 -0.276169,34.559156c-4.694874,1.889954 -1.933184,8.909782 4.971043,11.339723c10.494425,4.049901 10.770594,3.779908 19.331836,-12.149703c4.418705,-8.099802 9.389749,-14.849637 10.770594,-14.849637c2.761691,0 9.665918,12.149703 9.665918,17.009585c0,1.349967 -2.485522,1.889954 -5.523382,1.079974c-4.418705,-1.079974 -6.904227,0.80998 -10.770594,8.639789c-4.418705,8.369796 -6.904227,9.989756 -14.636961,10.259749c-4.971043,0 -12.703778,-1.079974 -17.122483,-2.699934zm14.91313,-109.887317c3.03786,-1.889954 3.314029,-3.239921 0.828507,-5.669862c-3.866367,-3.779908 -14.636961,-0.539987 -14.636961,4.589888c0,4.319895 7.732734,4.859881 13.808454,1.079974z"/>
   <path stroke="null" id="svg_20" d="m190.566051,4737.803335c-0.552338,-1.079974 2.485522,-6.209848 6.628058,-11.339723c6.07572,-7.289822 8.837411,-8.639789 11.322932,-6.209848c2.485522,2.429941 1.657014,5.129875 -2.761691,11.339723c-5.799551,8.099802 -12.427609,10.799736 -15.189299,6.209848z"/>
   <path stroke="null" id="svg_21" d="m231.715245,4688.934528c-0.828507,-1.61996 -5.247213,-2.969927 -9.942087,-2.969927c-5.247213,0 -8.008903,-1.349967 -8.008903,-4.049901c0,-2.429941 2.485522,-4.049901 6.628058,-4.049901c9.942087,0 21.541188,4.859881 20.436512,8.639789c-1.657014,4.319895 -6.904227,5.669862 -9.11358,2.429941z"/>
   <path stroke="null" id="svg_22" d="m308.490249,4534.228306c-5.523382,-7.019829 -8.837411,-20.789492 -5.523382,-22.94944c1.657014,-0.80998 3.590198,-0.269993 4.142536,1.349967c1.380845,4.319895 6.351889,4.049901 5.523382,0c-0.552338,-1.889954 1.380845,-3.239921 4.142536,-3.239921c3.03786,0.269993 4.418705,-1.079974 4.142536,-3.779908c-1.380845,-7.289822 5.523382,-6.479842 8.008903,1.349967c3.314029,9.179776 1.933184,14.309651 -4.142536,14.309651c-2.485522,0 -6.628058,1.349967 -8.837411,2.699934c-3.03786,1.889954 -1.657014,2.159947 4.971043,1.079974c11.599101,-2.159947 11.599101,2.429941 0,8.099802c-10.218256,5.129875 -9.11358,5.129875 -12.427609,1.079974z"/>
   <path stroke="null" id="svg_23" d="m263.19852,4513.9788c-0.276169,-1.349967 -0.276169,-2.969927 0,-4.049901c0,-1.349967 -0.828507,-2.159947 -2.485522,-2.159947c-1.380845,0 -2.761691,-1.889954 -2.761691,-4.049901c0,-2.159947 1.933184,-4.049901 4.142536,-4.049901c2.209353,0 4.142536,1.61996 4.142536,3.779908c0,2.159947 1.380845,4.319895 3.314029,4.859881c1.657014,0.539987 2.209353,2.699934 1.104676,4.319895c-2.209353,3.509914 -6.904227,4.319895 -7.456565,1.349967z"/>
  </g>
 </g>
</svg>